<svg height="300" viewBox="0 0 32 32" width="300" xmlns="http://www.w3.org/2000/svg" version="1.1" xmlns:xlink="http://www.w3.org/1999/xlink" xmlns:svgjs="http://svgjs.dev/svgjs"><g width="100%" height="100%" transform="matrix(1,0,0,1,0,0)"><g id="Layer_2" data-name="Layer 2"><path d="m23 30a7 7 0 1 1 7-7 7.008 7.008 0 0 1 -7 7zm0-12a5 5 0 1 0 5 5 5.006 5.006 0 0 0 -5-5z" fill="#ffffff" fill-opacity="1" data-original-color="#000000ff" stroke="none" stroke-opacity="1"/><path d="m23 26a1 1 0 0 1 -1-1v-4a1 1 0 0 1 2 0v4a1 1 0 0 1 -1 1z" fill="#ffffff" fill-opacity="1" data-original-color="#000000ff" stroke="none" stroke-opacity="1"/><path d="m25 24h-4a1 1 0 0 1 0-2h4a1 1 0 0 1 0 2z" fill="#ffffff" fill-opacity="1" data-original-color="#000000ff" stroke="none" stroke-opacity="1"/><path d="m18.55 28.01h-14.37a2.193 2.193 0 0 1 -2.18-2.2v-21.07a2.2 2.2 0 0 1 1.178-1.96 2.154 2.154 0 0 1 2.231.138 1.352 1.352 0 0 0 .921.312 1.529 1.529 0 0 0 1.079-.418 3.572 3.572 0 0 1 4.513 0 1.514 1.514 0 0 0 1.068.416 1.537 1.537 0 0 0 1.08-.417 3.583 3.583 0 0 1 4.522 0 1.514 1.514 0 0 0 1.068.416 1.341 1.341 0 0 0 .915-.3 2.149 2.149 0 0 1 2.238-.158 2.195 2.195 0 0 1 1.187 1.961v12.27a1 1 0 0 1 -2 0v-12.27a.2.2 0 0 0 -.106-.184.143.143 0 0 0 -.158.012 3.313 3.313 0 0 1 -2.076.672 3.462 3.462 0 0 1 -2.251-.8 1.6 1.6 0 0 0 -2.159 0 3.571 3.571 0 0 1 -4.511 0 1.592 1.592 0 0 0 -2.147 0 3.474 3.474 0 0 1 -2.262.8 3.307 3.307 0 0 1 -2.075-.679.143.143 0 0 0 -.15 0 .2.2 0 0 0 -.105.189v21.07a.193.193 0 0 0 .18.2h14.37a1 1 0 0 1 0 2z" fill="#ffffff" fill-opacity="1" data-original-color="#000000ff" stroke="none" stroke-opacity="1"/><path d="m18.6 11.005h-7.4a1 1 0 0 1 0-2h7.4a1 1 0 0 1 0 2z" fill="#ffffff" fill-opacity="1" data-original-color="#000000ff" stroke="none" stroke-opacity="1"/><circle cx="7.603" cy="10.005" r="1.199" fill="#ffffff" fill-opacity="1" data-original-color="#000000ff" stroke="none" stroke-opacity="1"/><path d="m18.6 16.2h-7.4a1 1 0 0 1 0-2h7.4a1 1 0 0 1 0 2z" fill="#ffffff" fill-opacity="1" data-original-color="#000000ff" stroke="none" stroke-opacity="1"/><circle cx="7.603" cy="15.203" r="1.199" fill="#ffffff" fill-opacity="1" data-original-color="#000000ff" stroke="none" stroke-opacity="1"/><path d="m17 21.2h-5.8a1 1 0 0 1 0-2h5.8a1 1 0 0 1 0 2z" fill="#ffffff" fill-opacity="1" data-original-color="#000000ff" stroke="none" stroke-opacity="1"/><circle cx="7.603" cy="20.203" r="1.199" fill="#ffffff" fill-opacity="1" data-original-color="#000000ff" stroke="none" stroke-opacity="1"/></g></g></svg>